<svg width="50" height="50" viewBox="0 0 50 50" fill="none" xmlns="http://www.w3.org/2000/svg">
<path d="M20.8334 31.25L20.8334 25" stroke="white" stroke-width="2" stroke-linecap="round"/>
<path d="M16.6667 10.4167L12.5 18.75M33.3333 10.4167L37.5 18.75" stroke="white" stroke-width="2" stroke-linecap="round"/>
<path d="M29.1666 31.25L29.1666 25" stroke="white" stroke-width="2" stroke-linecap="round"/>
<path d="M6.25 18.75H7.44054C8.87419 18.75 9.59102 18.75 10.1225 19.1454C10.6539 19.5408 10.8599 20.2274 11.2719 21.6006L15.8115 36.7327C16.2234 38.1059 16.4294 38.7925 16.9609 39.1879C17.4923 39.5833 18.2091 39.5833 19.6428 39.5833H30.3572C31.7909 39.5833 32.5077 39.5833 33.0391 39.1879C33.5706 38.7925 33.7766 38.1059 34.1885 36.7327L38.7281 21.6006C39.1401 20.2274 39.3461 19.5408 39.8775 19.1454C40.409 18.75 41.1258 18.75 42.5595 18.75H43.75" stroke="white" stroke-width="2" stroke-linecap="round"/>
<path d="M6.25 18.75L43.75 18.75" stroke="white" stroke-width="2" stroke-linecap="round"/>
</svg>
